#!OML:ASF H:\Terrain\Patient Classification 1\Walking\steve\steve.ASF
:FULLY-SPECIFIED
:DEGREES
16
root 7.21186 15.2919 -33.6711 9.27898 3.59812 4.30804
lowerback -0.293864 -0.766146 -6.08207
upperback -3.81836 -1.11223 0.734183
thorax -3.66259 -0.345529 4.20329
lowerneck -8.85067 -0.0578261 -3.64226
upperneck 7.07535 0.204061 1.98404
head 3.90591 0.0906927 1.32797
rclavicle 4.27387e-015 1.70955e-014
rhumerus -81.2676 -30.8173 -29.4713
rradius 13.188
rwrist 42.4926
rhand -14.4376 -38.2532
rfingers 7.12502
rthumb 11.7071 -67.906
lclavicle 4.27387e-015 1.70955e-014
lhumerus -7.65341 -6.71308 84.6721
lradius 40.7849
lwrist 24.5819
lhand -24.7577 -11.249
lfingers 7.12502
lthumb 1.7456 18.7236
rfemur -46.5623 1.3728 18.6592
rtibia 20.0067
rfoot -15.9105 1.15672
rtoes -11.8364
lfemur 15.1459 1.17909 -26.7828
ltibia 1.27222e-014
lfoot -5.86701 -7.09117
ltoes -13.179
17
root 7.21358 15.2783 -33.4228 9.21531 3.9777 4.74034
lowerback -0.0116005 -0.807849 -6.44752
upperback -3.82815 -1.19705 0.674685
thorax -3.8204 -0.371294 4.35468
lowerneck -10.2756 -0.143376 -4.90856
upperneck 8.9036 0.159339 3.43798
head 4.33581 0.113842 1.86721
rclavicle 1.09829e-014 -3.97569e-016
rhumerus -81.8389 -30.1736 -29.5459
rradius 13.3173
rwrist 41.0744
rhand -13.8889 -38.6151
rfingers 7.12502
rthumb 12.2362 -68.2371
lclavicle 1.09829e-014 -3.97569e-016
lhumerus -6.60762 -6.82262 84.6927
lradius 41.3673
lwrist 25.0066
lhand -24.9887 -12.1871
lfingers 7.12502
lthumb 1.52247 17.7872
rfemur -46.8227 2.004 17.3488
rtibia 19.7536
rfoot -16.5834 1.83862
rtoes -12.2723
lfemur 15.8521 0.598631 -27.0086
ltibia -1.27222e-014
lfoot -4.16273 -7.30993
ltoes -0.214344
18
root 7.2201 15.2497 -33.1653 8.94515 4.32311 5.55945
lowerback 0.35402 -0.890139 -7.08816
upperback -3.72814 -1.35379 0.452125
thorax -3.90076 -0.431908 4.49366
lowerneck -10.5423 -0.177219 -4.81461
upperneck 9.01922 0.115495 3.39379
head 4.41739 0.0942303 1.837
rclavicle -7.19352e-015 -1.55052e-014
rhumerus -82.838 -29.8257 -28.5054
rradius 13.2212
rwrist 41.1076
rhand -13.4463 -38.8039
rfingers 7.12502
rthumb 12.6629 -68.4
lclavicle -7.19352e-015 -1.55052e-014
lhumerus -6.2729 -7.34561 84.4042
lradius 42.8369
lwrist 25.8872
lhand -25.4637 -12.8664
lfingers 7.12502
lthumb 1.06373 17.1107
rfemur -46.9577 1.84069 16.2698
rtibia 20.1946
rfoot -16.8463 3.16288
rtoes -13.1095
lfemur 16.942 0.0427042 -27.7225
ltibia -9.54166e-015
lfoot -2.97657 -7.22465
ltoes 6.14786
19
root 7.22733 15.2023 -32.903 8.7242 4.60771 6.01542
lowerback 0.68229 -0.98535 -7.3932
upperback -3.72753 -1.5194 0.367914
thorax -4.06286 -0.499487 4.59004
lowerneck -10.0999 -0.0654905 -4.82331
upperneck 8.55651 0.246275 3.45631
head 4.19668 0.16126 1.8618
rclavicle -1.30577e-014 6.75868e-015
rhumerus -83.9535 -29.3877 -27.0917
rradius 13.1683
rwrist 41.4288
rhand -13.3122 -38.5404
rfingers 7.12502
rthumb 12.7923 -68.1285
lclavicle -1.30577e-014 6.75868e-015
lhumerus -6.82188 -8.07512 83.9842
lradius 45.2665
lwrist 26.9945
lhand -26.0202 -12.5039
lfingers 7.12502
lthumb 0.526221 17.4752
rfemur -46.9859 1.38966 16.0002
rtibia 20.9505
rfoot -16.6604 4.33099
rtoes -13.002
lfemur 18.2 -0.395663 -28.1269
ltibia 3.18055e-015
lfoot -2.35492 -7.04271
ltoes 5.66212
20
root 7.23844 15.1441 -32.6444 8.59077 4.98423 5.70398
lowerback 0.902851 -1.09254 -6.91676
upperback -3.78826 -1.66009 0.60234
thorax -4.23493 -0.573386 4.57884
lowerneck -9.31339 0.176065 -5.60065
upperneck 7.77754 0.581362 4.16065
head 3.81007 0.338806 2.21651
rclavicle -1.03617e-014 -3.26007e-014
rhumerus -84.6148 -28.7849 -26.1983
rradius 13.1612
rwrist 41.2808
rhand -13.5197 -38.0851
rfingers 7.12502
rthumb 12.5922 -67.6856
lclavicle -1.03617e-014 -3.26007e-014
lhumerus -7.06598 -8.09415 83.9393
lradius 46.8345
lwrist 27.6762
lhand -26.1421 -12.7012
lfingers 7.12502
lthumb 0.408535 17.2781
rfemur -46.8474 1.57159 16.1536
rtibia 21.6787
rfoot -16.5694 4.49041
rtoes -12.2046
lfemur 19.4708 -0.846878 -27.6953
ltibia -3.18055e-015
lfoot -1.20996 -6.84962
ltoes 10.1135
21
root 7.25177 15.0879 -32.3912 8.44081 5.20731 5.54552
lowerback 0.970956 -1.14573 -6.54018
upperback -3.67171 -1.71495 0.748366
thorax -4.14671 -0.617388 4.52146
lowerneck -10.6261 -0.113476 -5.19702
upperneck 8.89772 0.282366 3.23764
head 4.38692 0.155189 1.86145
rclavicle 1.67849e-014 1.59028e-014
rhumerus -85.1905 -28.5479 -25.1986
rradius 13.1564
rwrist 41.5227
rhand -13.3658 -37.8668
rfingers 7.12502
rthumb 12.7405 -67.4581
lclavicle 1.67849e-014 1.59028e-014
lhumerus -6.78668 -7.7996 83.9476
lradius 47.7863
lwrist 28.2817
lhand -26.3404 -13.7509
lfingers 7.12502
lthumb 0.216963 16.2287
rfemur -46.6516 2.0211 16.0268
rtibia 22.5592
rfoot -16.2754 4.3919
rtoes -10.9927
lfemur 20.7095 -1.17228 -27.4304
ltibia -5.40694e-014
lfoot -0.364212 -6.79769
ltoes 7.20858
22
root 7.25937 15.0488 -32.1313 8.22148 5.20285 5.70259
lowerback 1.18973 -1.15729 -6.51526
upperback -3.57902 -1.74242 0.752469
thorax -4.17067 -0.633334 4.51726
lowerneck -11.1097 -0.146284 -5.00719
upperneck 9.15188 0.278036 2.81723
head 4.54657 0.135004 1.7033
rclavicle 1.41261e-014 -1.03368e-014
rhumerus -85.9766 -28.4545 -23.7093
rradius 13.0634
rwrist 42.5351
rhand -12.7851 -37.8088
rfingers 7.12502
rthumb 13.3003 -67.3644
lclavicle 1.41261e-014 -1.03368e-014
lhumerus -6.80475 -7.77737 83.7647
lradius 48.8133
lwrist 29.0173
lhand -27.1322 -14.9199
lfingers 7.12502
lthumb -0.547781 15.0591
rfemur -46.4185 2.15886 15.9644
rtibia 23.9195
rfoot -15.6825 4.53878
rtoes -11.9984
lfemur 21.761 -1.30928 -27.5101
ltibia -1.59028e-014
lfoot 0.148551 -6.755
ltoes -4.93768
23
root 7.26777 15.0037 -31.8506 7.86324 5.37167 5.5511
lowerback 1.59992 -1.25679 -6.15954
upperback -3.63554 -1.88703 0.910307
thorax -4.44823 -0.70339 4.50131
lowerneck -11.0929 -0.0440493 -5.06627
upperneck 9.15645 0.449322 2.59492
head 4.53908 0.203156 1.65577
rclavicle -1.963e-015 -1.90833e-014
rhumerus -86.0593 -27.7604 -23.675
rradius 13.0755
rwrist 42.2666
rhand -12.3767 -37.4984
rfingers 7.12502
rthumb 13.694 -67.0279
lclavicle -1.963e-015 -1.90833e-014
lhumerus -7.26343 -7.50671 83.7141
lradius 49.728
lwrist 29.578
lhand -27.6321 -15.5202
lfingers 7.12502
lthumb -1.03055 14.457
rfemur -46.0347 1.77115 16.6137
rtibia 25.68
rfoot -14.2693 4.79578
rtoes -12.2096
lfemur 23.0745 -1.56923 -27.2407
ltibia -6.36111e-014
lfoot 1.73377 -6.61203
ltoes -5.51737
24
root 7.27719 14.9556 -31.5631 7.6909 5.76361 4.98592
lowerback 1.59051 -1.39521 -5.33436
upperback -3.70411 -2.0296 1.18871
thorax -4.50864 -0.795005 4.33498
lowerneck -11.0025 0.0252388 -4.83838
upperneck 9.15967 0.563002 2.05662
head 4.52358 0.233259 1.45941
rclavicle 1.2803e-014 -1.51076e-014
rhumerus -86.0447 -26.935 -24.0038
rradius 12.928
rwrist 42.1263
rhand -13.212 -36.2591
rfingers 7.12502
rthumb 12.8888 -65.8411
lclavicle 1.2803e-014 -1.51076e-014
lhumerus -7.84882 -7.19538 83.7815
lradius 50.7235
lwrist 30.0547
lhand -27.9969 -15.5689
lfingers 7.12502
lthumb -1.38292 14.4063
rfemur -45.8891 1.45536 17.5686
rtibia 27.6135
rfoot -11.8461 4.19744
rtoes -9.77675
lfemur 24.3218 -2.01381 -26.5786
ltibia 5.40694e-014
lfoot 3.03206 -6.71577
ltoes -8.63325
